<?xml version="1.0" standalone="no"?>
<!DOCTYPE svg PUBLIC "-//W3C//DTD SVG 1.1//EN" "http://www.w3.org/Graphics/SVG/1.1/DTD/svg11.dtd" >
<svg xmlns="http://www.w3.org/2000/svg">
<metadata>
Created by FontForge 20120731 at Mon Jun  5 14:04:55 2017
 By admin
</metadata>
<defs>
<font id="iconfont" horiz-adv-x="1024" >
  <font-face 
    font-family="iconfont"
    font-weight="500"
    font-stretch="normal"
    units-per-em="1024"
    panose-1="2 0 6 3 0 0 0 0 0 0"
    ascent="896"
    descent="-128"
    x-height="792"
    bbox="-151 -279 1347.69 1047"
    underline-thickness="0"
    underline-position="0"
    unicode-range="U+0078-EB5A"
  />
<missing-glyph 
 />
    <glyph glyph-name=".notdef" 
 />
    <glyph glyph-name=".notdef" 
 />
    <glyph glyph-name=".null" horiz-adv-x="0" 
 />
    <glyph glyph-name="nonmarkingreturn" horiz-adv-x="341" 
 />
    <glyph glyph-name="x" unicode="x" horiz-adv-x="1001" 
d="M281 543q-27 -1 -53 -1h-83q-18 0 -36.5 -6t-32.5 -18.5t-23 -32t-9 -45.5v-76h912v41q0 16 -0.5 30t-0.5 18q0 13 -5 29t-17 29.5t-31.5 22.5t-49.5 9h-133v-97h-438v97zM955 310v-52q0 -23 0.5 -52t0.5 -58t-10.5 -47.5t-26 -30t-33 -16t-31.5 -4.5q-14 -1 -29.5 -0.5
t-29.5 0.5h-32l-45 128h-439l-44 -128h-29h-34q-20 0 -45 1q-25 0 -41 9.5t-25.5 23t-13.5 29.5t-4 30v167h911zM163 247q-12 0 -21 -8.5t-9 -21.5t9 -21.5t21 -8.5q13 0 22 8.5t9 21.5t-9 21.5t-22 8.5zM316 123q-8 -26 -14 -48q-5 -19 -10.5 -37t-7.5 -25t-3 -15t1 -14.5
t9.5 -10.5t21.5 -4h37h67h81h80h64h36q23 0 34 12t2 38q-5 13 -9.5 30.5t-9.5 34.5q-5 19 -11 39h-368zM336 498v228q0 11 2.5 23t10 21.5t20.5 15.5t34 6h188q31 0 51.5 -14.5t20.5 -52.5v-227h-327z" />
    <glyph glyph-name="shanchu" unicode="&#xe600;" 
d="M344.5 105q11.5 0 19.5 8t8 20v306q0 12 -8 20t-19.5 8t-19.5 -8t-8 -20v-306q0 -12 8 -20t19.5 -8zM511.5 105q11.5 0 20 8t8.5 20v306q0 12 -8.5 20t-20 8t-19.5 -8t-8 -20v-306q0 -12 8 -20t19.5 -8zM679.5 105q11.5 0 19.5 8t8 20v306q0 12 -8 20t-19.5 8t-20 -8
t-8.5 -20v-306q0 -12 8.5 -20t20 -8zM819 746h-116q-9 37 -39 60.5t-68 23.5h-168q-38 0 -68 -23.5t-39 -60.5h-116q-46 0 -79 -32.5t-33 -78.5v-28h28v-28h56v-530q0 -46 32.5 -79t79.5 -33h446q46 0 79 33t33 79v530h55v28h28v28q0 46 -32.5 78.5t-78.5 32.5zM428 774h168
q31 0 48 -28h-264q16 28 48 28zM791 49q0 -23 -16.5 -39.5t-39.5 -16.5h-446q-24 0 -42 16.5t-18 39.5l4 530h558v-530zM149 635q0 23 16.5 39.5t39.5 16.5h614q23 0 39.5 -16.5t16.5 -39.5h-726z" />
    <glyph glyph-name="shuaxin" unicode="&#xe604;" 
d="M702 64q-80 -56 -178 -55q-12 0 -25 1q-2 0 -5.5 0.5t-4.5 1.5q-13 1 -19 2q-1 1 -11 3q-12 3 -19 5l-8 3q-13 4 -21 7q0 1 -4 3q-14 6 -24 11h-1q-38 22 -69 53v1h-1l-18 20q-1 1 -2 2.5t-2 2.5q-66 84 -66 192h70q3 0 4.5 2.5t0.5 4.5l-119 180q-1 3 -4 3t-4 -3
l-119 -180q-2 -2 -0.5 -4.5t4.5 -2.5h71q0 -126 71 -230l0.5 -1t0.5 -2q3 -3 15 -19q0 -1 2 -3.5t3 -3.5q10 -12 23 -26q2 -2 3 -2q40 -41 90 -68l2 -2q13 -7 29 -14q1 -1 3.5 -2t4.5 -1q10 -5 25 -10q10 -3 13 -4q8 -3 23 -6q13 -3 16 -4q1 0 3 -0.5t3 -0.5q5 -1 23 -3
q1 -1 3.5 -1h4.5q22 -3 40 -3q125 0 228 74q17 11 20.5 31t-8 36.5t-31 20t-36.5 -8.5zM928 317q0 125 -71 228q0 1 -0.5 2t-0.5 2q-6 7 -18 23l-1 1l-1 1q-61 75 -149 114q-1 0 -2.5 1t-2.5 1q-12 5 -28 11q-1 0 -3 0.5t-4 1.5t-3 1q-10 3 -26 7q-12 2 -14 3q-1 0 -3 0.5
t-4 0.5q-3 1 -10 2t-9 1q-1 0 -5.5 0.5t-7.5 0.5q-13 2 -31 2h-3h-3h-0.5h-0.5q-126 0 -228 -73q-17 -11 -20.5 -31t8 -36.5t31 -20t36.5 8.5q79 56 176 55q14 0 27 -1q1 0 4 -0.5t4 -0.5q12 -2 21 -4q1 0 10 -2l20 -5q1 -1 3.5 -1.5t3.5 -0.5q12 -5 22 -9q1 0 1.5 -0.5
t1.5 -0.5q67 -29 114 -87h0.5t0.5 -1q69 -85 69 -194h-71q-3 0 -4.5 -3t0.5 -5l119 -180q1 -3 4 -3t4 3l119 180q1 2 -0.5 5t-4.5 3h-70v0z" />
    <glyph glyph-name="unie600" unicode="&#xe62c;" 
d="M-53 832v0v0zM959 347l-77 12q-16 3 -29.5 14t-18.5 23q-7 18 -9.5 44t5.5 45l46 63q6 9 7.5 19.5t-2 20.5t-9.5 17l-35 35q-11 11 -28 12t-29 -8l-63 -46q-12 -10 -29.5 -12.5t-29.5 4.5q-10 4 -24 13.5t-27.5 23t-15.5 23.5l-12 77q-2 15 -14.5 26t-28.5 11h-48
q-10 0 -19.5 -5t-16 -13.5t-7.5 -18.5l-13 -77q-1 -10 -6.5 -20t-13.5 -18t-16 -10q-19 -7 -45 -9.5t-44 5.5l-63 46q-12 9 -29.5 8t-28.5 -12l-34 -35q-6 -7 -9.5 -17t-2 -20.5t7.5 -19.5l46 -63q10 -13 12.5 -30t-4.5 -29q-5 -10 -14 -24t-22.5 -27.5t-23.5 -15.5l-77 -12
q-8 -1 -14.5 -5t-11.5 -10t-8 -13t-3 -15v-48q0 -16 11 -28.5t26 -14.5l77 -13q10 -1 20 -6.5t18 -13.5t10 -16l2 -8q2 -5 3 -11t2.5 -13t2 -13.5t0.5 -12.5v-13q0 -5 -2 -10t-4 -8l-46 -63q-9 -12 -8 -29.5t12 -28.5l35 -34q11 -11 28 -12t29 8l63 46q9 7 19.5 10t21.5 2.5
t18 -4.5q18 -8 41 -27.5t26 -32.5l12 -77q1 -10 7.5 -19t16 -14t19.5 -5h48q5 0 10.5 2t10 4t8 5.5t7 8t5.5 8.5t2 10l12 77q3 16 14 29.5t23 18.5q19 6 45.5 9t43.5 -5l63 -46q7 -5 14.5 -6.5t15.5 -1t15 3.5t12 8l35 34q11 11 12 28.5t-8 29.5l-46 63q-10 12 -12.5 29.5
t4.5 29.5q4 10 13.5 24t23 27.5t23.5 14.5l77 13q15 2 26 14.5t11 28.5v48q0 10 -5 19.5t-13.5 16t-18.5 7.5v0zM512 88q-79 0 -135.5 56t-56.5 135.5t56.5 136t135.5 56.5t135.5 -56.5t56.5 -136t-56.5 -135.5t-135.5 -56zM396 280q0 47 34.5 81.5t81.5 34.5t81.5 -34.5
t34.5 -82t-34.5 -81.5t-81.5 -34q-63 0 -97 53q-18 30 -19 63v0z" />
    <glyph glyph-name="fafang" unicode="&#xe612;" 
d="M873 676h-389q-23 0 -41.5 -16t-28 -38.5t-16.5 -45t-9 -38.5l-2 -16v-153v-164l67 56v108h455v-205q0 -19 -9.5 -35t-20.5 -16h-287l-67 -103h348q43 0 70.5 44t27.5 110v205v153q0 64 -29 109t-69 45v0v0zM449 522q0 19 9.5 35t20.5 16h389q31 0 31 -51h-450v0v0z
M510 31l56 76q72 103 41 164q-11 21 -25.5 27.5t-33.5 -1t-35 -18t-39 -28.5l-118 -97l16 399q-12 10 -22 11.5t-22.5 -6.5t-26.5 -23t-37 -44l-112 -163v-471h148q38 0 66 8.5t47 28t31.5 37.5t31.5 49t34 51v0v0zM510 31z" />
    <glyph glyph-name="tuikuan" unicode="&#xe608;" 
d="M832 -212h-640q-26 0 -45 19t-19 45v768q0 27 18.5 45.5t45.5 18.5h128v64q0 13 25.5 38.5t38.5 25.5h256q13 0 38.5 -25.5t25.5 -38.5v-64h128q27 0 45.5 -18.5t18.5 -45.5v-768q0 -26 -18.5 -45t-45.5 -19zM640 748h-256v-128h256v128zM832 620h-128v-64
q0 -13 -25.5 -38.5t-38.5 -25.5h-256q-13 0 -38.5 25.5t-25.5 38.5v64h-128v-768h640v768zM352 304q-55 -40 -14 -68q14 -10 41.5 -26t47.5 -27l21 -11q2 1 4.5 2.5t7 11t-1.5 25.5l-10 25h128q7 -3 17.5 -8.5t28.5 -22t18 -33.5q0 -27 -19.5 -45.5t-44.5 -18.5h-192v-64
h192q5 0 14 0.5t31 7t39 18.5t31 39t13 63q0 5 -0.5 13.5t-7 31t-18 39t-38.5 30.5t-64 14h-128q6 19 10 36q6 13 5 25.5t-15 2.5q-8 -5 -42.5 -25.5t-53.5 -34.5z" />
    <glyph glyph-name="gongsi" unicode="&#xe686;" 
d="M844 556h-140v64q0 26 -19 45t-46 19h-254q-27 0 -46 -19t-19 -45v-64h-140q-48 0 -82 -34t-34 -81v-410q0 -47 34 -81t82 -34h664q48 0 82 34t34 81v410q0 47 -34 81t-82 34zM352 620q0 13 10 22.5t23 9.5h254q13 0 23 -9.5t10 -22.5v-64h-320v64zM180 524h664
q34 0 59 -24.5t25 -58.5v-77h-832v77q0 34 25 58.5t59 24.5zM606 332q-7 -28 -33.5 -46t-60.5 -18t-60.5 18t-33.5 46h188zM844 -52h-664q-34 0 -59 24.5t-25 58.5v301h289q7 -41 43 -68.5t84 -27.5t84 27.5t43 68.5h289v-301q0 -34 -25 -58.5t-59 -24.5z" />
    <glyph glyph-name="baocun" unicode="&#xe60f;" 
d="M820 -156h-616q-63 0 -108 45t-45 108v606q0 63 45 108t108 45h616q63 0 108 -45t45 -108v-606q0 -63 -45 -108t-108 -45v0zM204 696q-38 0 -65.5 -27t-27.5 -66v-606q0 -39 27.5 -66t65.5 -27h616q38 0 65.5 27t27.5 66v606q0 39 -27.5 66t-65.5 27h-616v0zM807 299
h-590v457h590v-457v0zM277 358h470v338h-470v-338v0zM600 609h60v-199h-60v199v0zM600 609z" />
    <glyph glyph-name="cshy-rmb2" unicode="&#xe62d;" 
d="M606 498l-59 -108q-23 -44 -28 -58h-1q-16 35 -88 166h-55l103 -176h-85v-39h99v-54h-99v-39h99v-78h49v78h95v39h-95v54h95v39h-81l103 176h-52zM887 309l67 154l-73 -18q-44 111 -143 180.5t-222 69.5q-106 0 -196 -52.5t-142.5 -143t-52.5 -197t52.5 -196.5
t142.5 -141.5t196 -51.5q121 0 219.5 66.5t142.5 173.5h-45q-43 -90 -128 -145t-189 -55q-95 0 -176 47t-128 128t-47 176t47 176t128 128t176 47q109 0 197.5 -61t128.5 -159l-86 -21z" />
    <glyph glyph-name="mp-report-des" unicode="&#xe63a;" 
d="M188 34h457v42h-457v-42zM396 325h-208v-42h208v42zM188 159h408l49 41h-457v-41zM528 761h-90h-312q-35 0 -59 -24t-24 -59v-789q0 -35 24 -59.5t59 -24.5h582q34 0 58.5 24.5t24.5 59.5v581zM541 685l182 -194h-140q-17 0 -29.5 12.5t-12.5 29.5v152zM749 -111
q0 -18 -12 -30t-29 -12h-582q-18 0 -30 12t-12 30v789q0 18 12 30t30 12h374v-187q0 -35 24.5 -59t58.5 -24h166v-561zM396 450h-208v-42h208v42zM633 131l-22 22l284 285l-22 22l-284 -285v1l-51 -117l117 51v-1l285 285l-22 22zM995 515q-14 14 -33.5 14t-32.5 -14
l-11 -11l-23 -22l67 -66l22 22l11 11q14 14 14 33t-14 33zM973 471l-11 -11l-22 22l11 11q11 11 22 0t0 -22z" />
    <glyph glyph-name="huiyuanqiamingxiguanli" unicode="&#xe659;" 
d="M970 447h-405q-22 0 -37.5 -16t-15.5 -38v-275q0 -22 15.5 -38t37.5 -16h405q22 0 37.5 16t15.5 38v275q0 22 -15.5 38t-37.5 16zM959 383v-62h-383v62h383zM576 128v129h383v-129h-383zM863.5 36q-13.5 0 -23 -9.5t-9.5 -22.5q0 -28 -19.5 -48t-48.5 -20h-630
q-28 0 -48 20t-20 48v760q0 28 20 48t48 20h379v-212q0 -44 31.5 -75.5t76.5 -31.5h212q1 -12 10 -20.5t21.5 -8.5t21.5 8.5t10 20.5v0v3v14v6q0 25 -12 47q-8 18 -23 32l-243 245q-14 14 -31 22q-23 14 -49 14h-7h-18h-379q-55 0 -93.5 -38.5t-38.5 -93.5v-760
q0 -55 38.5 -93.5t93.5 -38.5h630q55 0 93.5 38.5t38.5 93.5q0 13 -9 22.5t-22.5 9.5zM620 577q-18 0 -31 12.5t-13 30.5v186l228 -229h-184zM416 702h-255q-14 0 -23 -9t-9 -22.5t9 -23t23 -9.5h255q13 0 22.5 9.5t9.5 23t-9.5 22.5t-22.5 9zM416 511h-255q-14 0 -23 -9.5
t-9 -23t9 -22.5t23 -9h255q13 0 22.5 9t9.5 22.5t-9.5 23t-22.5 9.5zM416 319h-255q-14 0 -23 -9.5t-9 -22.5t9 -22.5t23 -9.5h255q13 0 22.5 9.5t9.5 22.5t-9.5 22.5t-22.5 9.5zM416 127h-255q-14 0 -23 -9t-9 -22.5t9 -23t23 -9.5h255q13 0 22.5 9.5t9.5 23t-9.5 22.5
t-22.5 9z" />
    <glyph glyph-name="fangqi" unicode="&#xe648;" horiz-adv-x="1162" 
d="M1135 26q-16 -4 -30.5 -1t-27 10t-21 15t-13.5 13.5t-5 6.5q-23 24 -54.5 44.5t-57 32.5t-53 21.5t-37.5 12t-15 4.5v0q-81 24 -220 13v-284v-2t-1.5 -6.5t-3 -9.5t-5 -9.5t-8 -8.5t-11.5 -5t-15 1t-19.5 9t-24.5 19l-480 439q-21 20 -29 42q-4 5 -3 14q0 9 4 15
q8 20 29 37l481 417q32 28 50 29q15 0 25.5 -10.5t10.5 -25.5v-292q63 1 122.5 -10.5t99.5 -29t71.5 -34.5t45.5 -30l15 -12q45 -32 82.5 -83.5t61.5 -108.5t37 -96.5t21 -75.5q10 -43 -22 -61zM893 400q-39 29 -83 48t-78.5 25t-63.5 8t-44 0l-16 -1q-30 -4 -52 3l-6 2
q-4 2 -7 4t-5 3l-1 1v2q-8 10 -8 23v269l-449 -389l-2 -2l3 -3l448 -410v241q0 23 20 33v0q18 10 62 13t80 1l35 -2q58 -4 113.5 -17.5t93 -31t66.5 -34.5t42 -28l14 -11q-56 167 -146 241z" />
    <glyph glyph-name="chongzhiliebiao" unicode="&#xe68a;" 
d="M114 588q-10 10 -10 23.5t10 23t23.5 9.5t22.5 -9l226 -226q10 -10 10 -25t-10 -25l-226 -226q-9 -9 -22.5 -9t-23.5 9.5t-10 23t10 23.5l172 171h-253q-14 0 -23.5 9.5t-9.5 23.5t9.5 23.5t23.5 9.5h253l-172 171v0zM670 309v49h-97q-30 0 -30 22.5t30 24.5h67l-114 174
q-2 0 -5 5q-5 9 -5 23q0 19 24 24q20 -2 33 -19l127 -190l127 190q11 17 33 19q22 -5 25 -24q0 -9 -8 -23q-3 -2 -3 -5l-113 -174h66q28 -3 31 -25q-3 -22 -31 -22h-96v-50h96q28 -2 31 -24q-3 -22 -31 -22h-96v-111q-3 -27 -31 -27q-30 0 -30 27v111h-97q-30 0 -30 22
t30 24zM107 784v-64h25v53q0 31 22 53.5t54 22.5h715q32 0 54.5 -22.5t22.5 -53.5v-778q0 -31 -22.5 -53.5t-54.5 -22.5h-715q-32 0 -54 22.5t-22 53.5v39h-25v-50q0 -37 27 -64t65 -27h733q38 0 65 27t27 64v800q0 37 -27 64t-65 27h-733q-38 0 -65 -26.5t-27 -64.5z" />
    <glyph glyph-name="shangpinguanli" unicode="&#xe634;" 
d="M866 640h-98q0 106 -75 181t-181 75t-181 -75t-75 -181h-98q-39 0 -66.5 -27.5t-27.5 -66.5v-580q0 -39 27.5 -66.5t66.5 -27.5h708q39 0 66.5 27.5t27.5 66.5v580q0 39 -27.5 66.5t-66.5 27.5zM512 832q79 0 135.5 -56.5t56.5 -135.5h-384q0 79 56.5 135.5t135.5 56.5z
M768 416q0 -13 -9.5 -22.5t-22.5 -9.5t-22.5 9.5t-9.5 22.5t9.5 22.5t22.5 9.5t22.5 -9.5t9.5 -22.5zM320 416q0 -13 -9.5 -22.5t-22.5 -9.5t-22.5 9.5t-9.5 22.5t9.5 22.5t22.5 9.5t22.5 -9.5t9.5 -22.5zM896 -34q0 -13 -8.5 -21.5t-21.5 -8.5h-708q-13 0 -21.5 8.5
t-8.5 21.5v580q0 13 8.5 21.5t21.5 8.5h98v-70q-28 -10 -46 -34.5t-18 -55.5q0 -40 28 -68t68 -28t68 28t28 68q0 31 -18 56t-46 34v70h384v-70q-28 -10 -46 -34.5t-18 -55.5q0 -40 28 -68t68 -28t68 28t28 68q0 31 -18 56t-46 34v70h98q13 0 21.5 -8.5t8.5 -21.5v-580z" />
    <glyph glyph-name="fangkuai" unicode="&#xe768;" 
d="M946 417q14 -13 14 -33t-14 -33l-401 -401q-13 -14 -33 -14t-33 14l-401 401q-14 13 -14 33t14 33l401 401q13 14 33 14t33 -14z" />
    <glyph glyph-name="jihuahuizong" unicode="&#xe670;" 
d="M926 265h-315l69 68q8 9 8 21t-8.5 21t-20.5 9t-21 -9l-118 -118q-1 -1 -1 -2h-1v-0.5t-0.5 -0.5h-0.5v-1h-0.5h-0.5v-1l-0.5 -0.5l-0.5 -0.5v0v-1l-0.5 -0.5l-0.5 -0.5v-0.5t-0.5 -1l-0.5 -0.5v-1v0v0v-0.5v-0.5q-1 0 -1 -1v0v-1v-1v-1h-1v-1v0v-1.5v-1v-0.5v-1v0v0v-2
v-0.5v-0.5v-1v-1v-1h1v-1v0v-1v-1l1 -1v0v0v-0.5v-0.5v-0.5t0.5 -1l0.5 -0.5v-0.5t0.5 -0.5t0.5 -1v0v-1q1 0 1 -0.5v-0.5v0l1 -1v0v0l0.5 -0.5l0.5 -0.5v-1h1q0 -1 1 -1l118 -118q9 -9 21 -9t20.5 8.5t8.5 20.5t-8 21l-69 68h315q12 0 20.5 9t8.5 21t-8.5 20.5t-20.5 8.5v0
v0zM629 651q0 12 -8.5 20.5t-20.5 8.5h-385q-12 0 -20.5 -8.5t-8.5 -20.5t8.5 -21t20.5 -9h385q12 0 20.5 9t8.5 21v0v0zM481 474q0 12 -8.5 20.5t-20.5 8.5h-237q-12 0 -20.5 -8.5t-8.5 -20.5t8.5 -20.5t20.5 -8.5h237q12 0 20.5 8.5t8.5 20.5v0v0zM215 326
q-12 0 -20.5 -8.5t-8.5 -21t8.5 -21t20.5 -8.5h178q12 0 20.5 8.5t8.5 21t-8.5 21t-20.5 8.5h-178v0v0zM926 117q-13 0 -21.5 -8.5t-8.5 -21.5v-70q0 -7 -5.5 -13t-13.5 -6h-544v30q0 12 -8.5 21t-21 9t-21 -9t-8.5 -21v-59q0 -11 7.5 -19.5t18.5 -9.5h1h2h574
q29 0 50.5 18.5t26.5 46.5q1 3 1 7v75q0 13 -8.5 21.5t-20.5 8.5v0v0zM877 709h-46q-12 0 -21 -8.5t-9 -20.5t9 -21t21 -9h46q8 0 13.5 -5.5t5.5 -13.5v-245q0 -12 8.5 -20.5t21 -8.5t21 8.5t8.5 20.5v245q0 32 -23 55t-55 23v0v0zM481 88q13 0 21.5 9t8.5 21t-8.5 20.5
t-20.5 9.5v0h-337q-8 0 -13.5 5.5t-5.5 13.5v583q0 8 5.5 13.5t13.5 5.5h525q8 0 13.5 -5.5t5.5 -13.5v-278q0 -12 8.5 -20.5t21 -8.5t21 8.5t8.5 20.5v278q0 32 -23 54.5t-55 22.5h-525q-32 0 -55 -22.5t-23 -54.5v-583q0 -33 23 -55.5t55 -22.5h331q3 -1 5 -1v0v0zM481 88
z" />
    <glyph glyph-name="faqia" unicode="&#xe601;" 
d="M486 226h-212v-27h212v27zM908 674h-792q-22 0 -37.5 -15t-15.5 -37v-476q0 -22 15.5 -37t37.5 -15h792q22 0 37.5 15t15.5 37v476q0 22 -15.5 37t-37.5 15zM935 149q0 -11 -8 -18.5t-19 -7.5h-792q-11 0 -19 7.5t-8 18.5v182h846v-182zM935 358h-846v105h634v27h-634
v129q0 11 8 18.5t19 7.5h792q11 0 19 -7.5t8 -18.5v-261zM195 226h-53v-27h53v27z" />
    <glyph glyph-name="guashijiegua" unicode="&#xeb5a;" 
d="M783 337v0q-20 20 -20 48t20 48l63 63q43 44 41.5 107t-47.5 109t-109 47.5t-107 -41.5l-146 -146q-20 -20 -48 -20t-48 20v0q-20 20 -20 48t20 48l146 146q84 84 204 82q119 -2 204.5 -87.5t87.5 -204.5q2 -120 -82 -204l-63 -63q-20 -20 -48 -20t-48 20zM87.5 -40.5
q-85.5 85.5 -87.5 204.5q-2 120 82 204l96 96q20 20 48.5 20t48.5 -20v0q20 -19 20 -47.5t-20 -48.5l-97 -96q-43 -44 -41.5 -107t47.5 -109t109 -47.5t107 41.5l146 146q20 20 48 20t48 -20v0q20 -20 20 -48t-20 -48l-146 -146q-84 -84 -204 -82q-119 2 -204.5 87.5z" />
    <glyph glyph-name="zengjia" unicode="&#xe620;" 
d="M167 320q-26 0 -44 18t-18 43.5t18 43.5t44 18h280v280q0 26 18 44t43.5 18t43.5 -18t18 -44v-280h280q26 0 44 -18t18 -43.5t-18 -43.5t-44 -18h-280v-280q0 -26 -18 -44t-43.5 -18t-43.5 18t-18 44v280h-280z" />
    <glyph glyph-name="chongzhi" unicode="&#xe6ab;" 
d="M946 460l-359 358q-14 15 -34.5 15t-34.5 -15l-440 -440q-15 -14 -15 -34.5t15 -34.5l358 -359q15 -14 35.5 -14t34.5 14l440 440q14 14 14 34.5t-14 35.5zM877 390l-371 -371v0l-35 -34l-34 34v0l-325 325l440 440l35 -35l226 -226l-378 -377v0v0l-2 -3v0
q-5 -7 -4.5 -16.5t7 -16t15.5 -7t17 5.5v0l2 2v0v0l378 377l29 -29l34 -34z" />
    <glyph glyph-name="wodejixiao" unicode="&#xe669;" 
d="M185 337h140v-233h-140v233zM559 477h140v-373h-140v373zM372 617h140v-513h-140v513zM745 757h140v-653h-140v653zM139 57h746v-46h-746v46z" />
    <glyph glyph-name="liebiao" unicode="&#xe62e;" 
d="M0 756v-93h1024v93h-1024zM0 337h1024v94h-1024v-94zM0 12h1024v93h-1024v-93z" />
    <glyph glyph-name="dayinyulan" unicode="&#xe606;" 
d="M736 -115h-459q-80 0 -137.5 57t-57.5 138v601q0 81 57.5 138t137.5 57h459q80 0 137.5 -57t57.5 -138v-601q0 -81 -57.5 -138t-137.5 -57zM277 803q-50 0 -86 -36t-36 -86v-601q0 -50 36 -86t86 -36h459q50 0 85.5 36t35.5 86v601q0 50 -35.5 86t-85.5 36h-459z
M526.5 95q-92.5 0 -158 65.5t-65.5 158t65.5 158t158 65.5t158 -65.5t65.5 -158t-65.5 -158t-158 -65.5zM526 469q-62 0 -106 -44t-44 -106.5t44 -106.5t106 -44t106.5 44t44.5 106.5t-44.5 106.5t-106.5 44zM797 91q8 -8 5 -21.5t-15 -25.5v0q-12 -11 -25.5 -13.5
t-21.5 5.5l-92 95q-8 8 -5.5 21.5t14.5 25.5v0q12 11 25.5 13.5t21.5 -5.5z" />
    <glyph glyph-name="dengji" unicode="&#xe654;" 
d="M725 586v2.5t-1 2.5l-3 5t-4 6h-1v1l-240 213q-1 1 -2.5 1.5t-1.5 1.5q-5 3 -7 3q-1 1 -6 2q-1 0 -2.5 0.5t-2.5 0.5h-309q-33 0 -56.5 -25.5t-23.5 -60.5v-710q0 -35 23.5 -60.5t56.5 -25.5h502q33 0 56.5 25.5t23.5 60.5v549v0v1q0 2 -2 7zM487 718l120 -107h-106
q-5 0 -9.5 5.5t-4.5 13.5v88zM661 29q0 -8 -4.5 -13.5t-9.5 -5.5h-502q-5 0 -9.5 5.5t-4.5 13.5v710q0 8 4.5 13.5t9.5 5.5h276v-128q0 -35 23.5 -60t56.5 -25h160v-516zM583 250h-374q-14 0 -23.5 -10t-9.5 -23.5t9.5 -23.5t23.5 -10h374q14 0 23.5 10t9.5 23.5t-9.5 23.5
t-23.5 10zM176 422q0 -14 9.5 -23.5t23.5 -9.5h374q14 0 23.5 9.5t9.5 23.5t-9.5 23.5t-23.5 9.5h-374q-14 0 -23.5 -9.5t-9.5 -23.5zM926 825h-109q-14 0 -23.5 -10t-9.5 -24v-681v0q-1 -9 2 -17l54 -129q9 -20 31 -20t31 20l54 129v2t1 2q2 6 2 13v681q0 14 -9.5 24
t-23.5 10zM893 143h-43v615h43v-615z" />
    <glyph glyph-name="kehufenpeimoren" unicode="&#xe7bd;" 
d="M937 199h-343q-1 0 -6 1q-8 2 -12 7q-7 6 -7 15.5t7 16.5l117 115q6 7 15.5 7t16 -6.5t6.5 -16t-6 -16.5l-78 -77h290q9 0 15.5 -6.5t6.5 -16t-6.5 -16.5t-15.5 -7zM454 292q-136 0 -235.5 -93t-107.5 -229h-46q7 123 82.5 219t190.5 131q-62 32 -99.5 92.5t-37.5 132.5
q0 105 74 179t179 74t179 -74t74 -179t-74 -179t-179 -74zM454 752q-86 0 -146.5 -61t-60.5 -146.5t60.5 -146t146.5 -60.5t146.5 60.5t60.5 146t-60.5 146.5t-146.5 61zM593 131h340q2 0 6 -1q8 -2 13 -6q6 -7 6 -16.5t-6 -15.5l-117 -115q-6 -7 -15.5 -7t-16 7t-6.5 16
t6 16l78 76h-288q-10 0 -16.5 7t-6.5 16.5t6.5 16t16.5 6.5z" />
    <glyph glyph-name="shujuguanlisvg84" unicode="&#xe73e;" 
d="M1025 1047h-1025q-63 0 -107 -44t-44 -106v-1026q0 -62 44 -106t107 -44h1025q62 0 106 44t44 106v1026q0 62 -44 106t-106 44zM1065 -129q0 -16 -12 -28t-28 -12h-1025q-17 0 -29 12t-12 28v1026q0 16 12 28t29 12h1025q15 0 27.5 -9.5t12.5 -16.5v-1040zM786 798h-548
q-75 0 -128.5 -53.5t-53.5 -128.5v-339q0 -75 53.5 -128.5t128.5 -53.5h145q62 -125 129 -125t129 125h145q75 0 128.5 53.5t53.5 128.5v339q0 75 -53.5 128.5t-128.5 53.5zM895 277q0 -45 -32 -77t-77 -32h-168q-23 0 -33 -21q-24 -52 -45 -80q-19 -23 -28 -24
q-10 1 -28 24q-21 28 -45 80q-10 21 -33 21h-168q-45 0 -77 32t-32 77v339q0 45 32 77t77 32h548q45 0 77 -32t32 -77v-339zM536 622h-30q-10 0 -17 -7t-7 -17v-136h-193q-10 0 -17 -7t-7 -17v-30q0 -10 7 -17t17 -7h247q9 0 16.5 7t7.5 16v3v188q0 10 -7 17t-17 7z" />
    <glyph glyph-name="guize-copy" unicode="&#xe607;" horiz-adv-x="1039" 
d="M1038 15v66l-50 9q-3 9 -8 18l30 41l-47 47l-41 -30q-8 5 -18 8l-8 50h-66l-9 -50q-9 -3 -18 -8l-41 30l-47 -47l30 -41q-4 -9 -7 -18l-51 -9v-66l51 -8q3 -10 7 -18l-30 -42l47 -47l42 30q8 -4 17 -7l9 -51h66l8 51q10 3 18 7l41 -30l47 47l-30 42q5 8 8 18l50 8v0z
M863 -4q-22 0 -37.5 15t-15.5 37t15.5 37.5t37 15.5t37 -15.5t15.5 -37.5t-15.5 -37t-36.5 -15v0v0zM832 273v355q0 43 -15.5 58.5t-58.5 15.5h-107v-137h-426v137h-91q-43 0 -58.5 -15.5t-15.5 -58.5v-596q0 -43 15.5 -58.5t58.5 -15.5h537v-60h-537q-134 0 -134 134v596
q0 134 134 134h91v34h86q11 43 46 71.5t80.5 28.5t81 -28.5t45.5 -71.5h87v-34h107q134 0 134 -134v-355h-60zM507 736v30q0 29 -20 49.5t-49 20.5t-49.5 -20.5t-20.5 -49.5v-30h-83v-111h306v111h-84zM196 158h459v-60h-459v60zM196 458h500v-60h-500v60zM696 260
q-7 -6 -12 -12h-488v60h500v-48v0z" />
    <glyph glyph-name="chongzhi1" unicode="&#xe616;" horiz-adv-x="1348" 
d="M1330 360l-109 -76q17 -37 6 -77t-46 -64q-29 -21 -64.5 -21.5t-63.5 18.5q10 -47 -7.5 -92.5t-57.5 -74.5q-47 -32 -101.5 -28.5t-96.5 38.5l-132 -93q-13 -9 -29.5 -6t-25.5 16l-61 87l-155 -108q-13 -9 -29.5 -6.5t-25.5 16.5l-325 463q-9 13 -6 29.5t16 25.5l672 470
q14 10 30 7t26 -16l61 -87l154 108q14 9 30 6.5t26 -16.5l324 -463q10 -14 7 -30t-17 -26zM1169 160.5q32 22.5 39 61t-15.5 70.5t-61 38.5t-70.5 -15.5t-39 -61t15.5 -70.5t61 -38.5t70.5 15.5zM975.5 -9q47.5 33 57.5 90t-23 104.5t-90.5 57.5t-104.5 -23t-57.5 -90
t23 -104.5t90.5 -57.5t104.5 23zM1248 411l-268 383q-8 12 -21.5 14t-24.5 -6l-556 -388q-11 -8 -13.5 -21.5t5.5 -24.5l268 -383q8 -11 21.5 -13.5t24.5 5.5l71 49q-30 54 -16.5 115t64.5 96q46 32 100.5 29t96.5 -38q-3 30 10 58t38 46q33 23 71 21t68 -25l53 37
q11 8 13.5 21.5t-5.5 24.5zM913 541q-29 8 -48 34.5t-16 56.5q2 31 26.5 48t54.5 9q29 -8 47.5 -34t16.5 -57q-3 -31 -27 -48t-54 -9zM942 630q-7 11 -18 14q-12 4 -22 -2q-9 -7 -10 -19q0 -12 8 -23q7 -10 19 -14q12 -5 21 2q10 7 10 20q0 12 -8 22zM872 512
q-3 -31 -27 -48t-54 -9q-29 8 -48 34q-19 27 -16 57q2 31 26.5 48t54.5 9q29 -8 48 -34q18 -27 16 -57zM820 544q-7 11 -18 15q-12 4 -21.5 -3t-9.5 -19q-1 -12 7 -23t19 -14q11 -5 21 2t10 20q0 12 -8 22zM767 422q2 -2 1 -5q0 -3 -2 -4q-5 -3 -14 -10l-13 -9q-4 -3 -6 1
l-1 1q-25 39 -32 48l-21 30q-2 3 -4 2t-4.5 -5t-4.5 -5q-3 -2 -6 1.5t-7 10.5q-2 3 -5 6.5l-3 3.5q-1 3 0 5q10 16 10 32q0 4 1 4q1 1 2 1q4 2 12 5q6 3 13 6q1 0 2 -1t2 -3q5 -9 30 -44q20 -28 25 -36q5 -7 10 -13.5t9 -13t6 -8.5zM843 162q0 4 1 4q1 1 2 1q4 2 12 5l12 6
q2 0 3 -1t2 -3q5 -9 30 -45q17 -24 25 -35q12 -16 25 -35q2 -2 1.5 -5t-2.5 -4t-14 -10q-3 -2 -8 -5.5l-5 -3.5q-4 -3 -6 1l-1 1q-26 40 -32 48l-21 30q-2 3 -4 2t-4.5 -5t-5.5 -5q-2 -2 -5 2t-8 10q-1 2 -3.5 5.5t-3.5 4.5q-2 2 0 5q10 16 10 32z" />
    <glyph glyph-name="leibieguanli" unicode="&#xe618;" horiz-adv-x="1025" 
d="M390 384h-204q-51 0 -86.5 35.5t-35.5 86.5v204q0 51 35.5 86.5t86.5 35.5h204q51 0 86.5 -35.5t35.5 -86.5v-204q0 -51 -35.5 -86.5t-86.5 -35.5zM186 768q-24 0 -41 -17t-17 -41v-204q0 -24 17 -41t41 -17h204q24 0 41 17t17 41v204q0 24 -17 41t-41 17h-204zM902 384
h-204q-51 0 -86.5 35.5t-35.5 86.5v204q0 51 35.5 86.5t86.5 35.5h204q51 0 86.5 -35.5t35.5 -86.5v-204q0 -51 -35.5 -86.5t-86.5 -35.5zM698 768q-24 0 -41 -17t-17 -41v-204q0 -24 17 -41t41 -17h204q24 0 41 17t17 41v204q0 24 -17 41t-41 17h-204zM390 -128h-204
q-51 0 -86.5 35.5t-35.5 86.5v204q0 51 35.5 86.5t86.5 35.5h204q51 0 86.5 -35.5t35.5 -86.5v-205q0 -50 -35.5 -85.5t-86.5 -35.5zM186 256q-24 0 -41 -17t-17 -41v-205q0 -23 17 -40t41 -17h204q24 0 41 17t17 40v205q0 24 -17 41t-41 17h-204zM902 -128h-204
q-51 0 -86.5 35.5t-35.5 86.5v204q0 51 35.5 86.5t86.5 35.5h204q51 0 86.5 -35.5t35.5 -86.5v-205q0 -50 -35.5 -85.5t-86.5 -35.5zM698 256q-24 0 -41 -17t-17 -41v-205q0 -23 17 -40t41 -17h204q24 0 41 17t17 40v205q0 24 -17 41t-41 17h-204z" />
    <glyph glyph-name="shangbiaogengzheng" unicode="&#xe79b;" 
d="M1308 9zM408 636h208q10 0 17.5 7.5t7.5 18t-7.5 18t-17.5 7.5h-208q-10 0 -17.5 -7.5t-7.5 -18t7.5 -18t17.5 -7.5zM835 777h-206q-1 27 -20 46t-47 19h-108q-27 0 -46.5 -19t-19.5 -46h-206q-28 0 -47.5 -19.5t-19.5 -47.5v-712q0 -27 19.5 -46.5t47.5 -19.5h653
q27 0 46.5 19.5t19.5 46.5v712q0 28 -19.5 47.5t-46.5 19.5zM454 790h108q6 0 10.5 -4t5.5 -9h-139q0 5 4.5 9t10.5 4zM850 -2q0 -6 -4.5 -10.5t-10.5 -4.5h-653q-7 0 -11.5 4.5t-4.5 10.5v712q0 7 4.5 11.5t11.5 4.5h653q6 0 10.5 -4.5t4.5 -11.5v-712zM752.5 558.5
q-8.5 6.5 -19 5t-17.5 -10.5l-246 -329l-175 133q-8 6 -18.5 4.5t-17 -10t-5 -19t9.5 -16.5l195 -149q7 -5 16 -5h3q11 2 17 10l262 350q7 9 5.5 19.5t-10 17z" />
    <glyph glyph-name="daochuexcel" unicode="&#xe60e;" 
d="M615 779v-167h171v56l-114 111h-57v0zM529 269l-45 68l-45 -68h-107l99 148l-99 148h107l45 -68l45 68h106l-97 -148l97 -148h-106v0zM450 118l167 -129v90h241v81h-241v88zM417 48h-188v669h496v-447h63v411l-100 98h-521v-790h250v59v0z" />
    <glyph glyph-name="qiawuguanli01" unicode="&#xe60c;" 
d="M64 715v-623h896v623h-896zM791 671h125v-63h-125v63zM630 671h125v-63h-125v63zM141 660h202v-24h-202v24zM136 505h571v-21h-571v21zM495 390h-357v25h357v-25zM919 178h-250v23h250v-23v0z" />
    <glyph glyph-name="huiyuantuiqia" unicode="&#xe716;" 
d="M63 691v-613h898v613h-898zM920 119h-816v326h816v-326zM920 527h-816v123h816v-123zM839 365h-205v-41h205v41zM839 243h-205v-41h205v41z" />
    <glyph glyph-name="gongxiangtubiaofenpeijiaose" unicode="&#xe865;" 
d="M466 385q-24 -29 -44 -69q-144 -22 -245.5 -129t-112.5 -251h-64q10 144 102.5 262.5t229.5 162.5q-64 38 -103 103.5t-39 143.5q0 119 84.5 203.5t203.5 84.5q120 0 204 -84.5t84 -203.5q0 -48 -17 -96q-1 0 -5 0.5t-6 0.5q-29 0 -60 -5q24 49 24 100q0 93 -65.5 158.5
t-158 65.5t-158.5 -65.5t-66 -158.5q0 -89 62 -153.5t150 -69.5zM957 128q-2 -19 -4 -32t-7.5 -24l-7.5 -15t-11.5 -15.5t-11.5 -14.5l47 -47l-45 -45l-47 47q-45 -34 -102 -42v-68h-64v68q-56 8 -102 42l-47 -47l-45 45l47 47q-3 4 -10 12.5t-9.5 12.5t-7 12t-7 16t-4.5 20
t-4 28h-67v64h67q2 19 4 31.5t7.5 24.5t7 15t12 16t11.5 15l-47 48l45 45l47 -47q46 34 102 42v66h64v-66q56 -8 102 -42l47 47l45 -45l-47 -48q3 -4 10 -13t9.5 -12.5t7.5 -12t7 -16t4 -20t4 -28.5h67v-64h-67zM736 321q-66 0 -113 -47t-47 -113t47 -113t113 -47t113 47
t47 113t-47 113t-113 47z" />
    <glyph glyph-name="gongxiangtubiaopiliangtuiqia" unicode="&#xe872;" 
d="M888 53l136 -136l-45 -45l-136 136l-136 -136l-45 45l136 136l-136 136l45 45l136 -136l136 136l45 -45zM384 384v-64h64v64h-64zM256 384v-64h64v64h-64zM576 320v64h-64v-64h64zM704 384h-64v-64h64v64zM832 320v64h-64v-64h64zM256 128h256v64h-256v-64zM192 64h448
v-64h-512v128h-64h-64v64v576v64h832v-64v-64h128v-384h-64v128h-704v-384zM192 640v-128h704v128h-704zM128 704h640v64h-704v-576h64v512z" />
    <glyph glyph-name="xiugai" unicode="&#xe640;" horiz-adv-x="1098" 
d="M330 329q-2 -1 -2 -3l-53 -195q-5 -18 8 -32q10 -9 24 -9q4 0 8 1l194 53l0.5 -0.5l0.5 -0.5q3 0 6 3l518 518q24 24 24 59q0 41 -31 71l-48 49q-31 30 -71 30q-36 0 -60 -24l-518 -518v-0.5v-1.5v0zM983 714l-51 -51l-84 85l51 50q6 6 16 5.5t17 -7.5l49 -49q8 -8 8 -19
q0 -8 -6 -14v0zM422 321l374 374l83 -85l-373 -373l-84 84v0zM354 170l27 99l72 -72l-99 -27v0zM1016 509q-15 0 -25.5 -10.5t-10.5 -25.5v-483q0 -19 -13.5 -32t-32.5 -13h-817q-19 0 -32.5 13t-13.5 32v789q0 19 13.5 32.5t32.5 13.5h527q14 0 24.5 10t10.5 25t-10.5 25.5
t-24.5 10.5h-532q-46 0 -79 -33t-33 -79v-799q0 -46 33 -79t79 -33h828q46 0 79 33t33 79v489q0 14 -10.5 24.5t-25.5 10.5v0z" />
    <glyph glyph-name="shijianshezhitongyong" unicode="&#xe707;" 
d="M452 63h-249q-9 0 -9 9v464h636v-85q35 -24 62 -56v236q0 29 -21 50t-50 21h-71v33q0 17 -12 29t-28.5 12t-28.5 -12t-12 -29v-33h-314v33q0 17 -12 29t-28.5 12t-28.5 -12t-12 -29v-33h-71q-29 0 -50 -21t-21 -50v-559q0 -29 21 -49.5t50 -20.5h308q-35 26 -59 61z
M368 442h-87q-9 0 -15 -6t-6 -14v-58q0 -9 6 -15t15 -6h87q9 0 15 6t6 15v58q0 8 -6 14t-15 6zM368 260h-87q-9 0 -15 -6t-6 -15v-58q0 -8 6 -14t15 -6h87q9 0 15 6t6 14v58q0 9 -6 15t-15 6zM829 174l-124 87q13 33 5 68.5t-34 62.5q-25 25 -59.5 33t-66.5 -3l37 -37
q14 -14 17 -33t-6 -36q-15 -25 -43 -28.5t-47 15.5l-38 39q-11 -32 -3 -66.5t33 -60.5q26 -26 62 -33.5t68 4.5l83 -125q20 -32 58 -36.5t67 21.5v0q29 26 26 65.5t-35 62.5z" />
    <glyph glyph-name="qiapianpiliangdaifa" unicode="&#xe6c1;" 
d="M896 503h-293v291q0 42 -29.5 70.5t-70.5 28.5h-403q-41 0 -70.5 -29.5t-29.5 -69.5v-413v-91v-57q0 -51 37 -88t88 -37h6h259v-134q0 -42 29 -70.5t70 -28.5h401q42 0 71 29t29 70v430q4 42 -24.5 70.5t-69.5 28.5zM242 171q17 30 17 62v145q0 26 18.5 44.5t43.5 18.5h6
q26 0 44.5 -18.5t18.5 -44.5v-207h-148zM327 503v0h-6q-51 0 -88 -35.5t-37 -86.5v-3v-148q0 -25 -18.5 -43.5t-43.5 -18.5h-9q-25 0 -43.5 18.5t-18.5 43.5v57v91v416q0 15 11 26t26 11h401q15 0 26 -11t11 -26v-288h-211v-3zM933 -28q0 -15 -11 -26t-26 -11h-404
q-15 0 -26 11t-11 26v332v74q0 37 -17 63h458q15 0 26 -11t11 -26v-432zM822 219q0 15 -9.5 24.5t-24.5 9.5h-31l31 54q6 13 2.5 26t-13.5 20q-13 6 -26 2.5t-20 -14.5l-28 -51l-29 51q-6 13 -20.5 16.5t-24.5 -4.5q-12 -9 -15.5 -21.5t3.5 -24.5l32 -54h-35
q-15 0 -24.5 -9.5t-9.5 -24.5t9.5 -24.5t24.5 -9.5h60v0v-31h-60q-15 0 -24.5 -10t-9.5 -24.5t9.5 -24.5t24.5 -10h60v-54q0 -15 9.5 -24.5t24.5 -9.5t24.5 9.5t9.5 24.5v54h54q15 0 25 10t10 24.5t-10 24.5t-25 10h-54v31v0h54q8 0 17 10t9 24zM142 688h86q17 0 29.5 13
t12.5 30q0 18 -12 30.5t-30 12.5h-86q-17 0 -29.5 -13t-12.5 -30q0 -18 12 -30.5t30 -12.5zM466 640h-324q-17 0 -29.5 -13t-12.5 -30t12 -29.5t30 -12.5h324q18 0 30.5 12.5t12.5 29.5t-12.5 30t-30.5 13z" />
    <glyph glyph-name="butie" unicode="&#xe630;" 
d="M26 641q3 71 4 74q1 23 18 39.5t41 18.5q4 0 35 1.5t47 3.5q163 17 303 106q29 18 59 8q8 -2 16 -8q124 -78 269 -102q52 -8 111 -9q29 0 47 -18t20 -47q5 -78 -2 -155q-27 -281 -193 -479q-107 -127 -260 -195q-29 -13 -58 0q-138 62 -240 174q-128 140 -182 334
q-34 120 -35 254v0v0zM94 708q0 -2 -1 -15.5t-1 -20.5q-3 -92 11 -178q25 -147 93 -267q112 -197 310 -288q6 -3 12 0q183 84 291 255q136 216 123 497q0 3 -0.5 9t-0.5 8q-1 0 -3 0.5t-3 0.5q-64 1 -122 10q-154 27 -285 109q-5 4 -11 1q-32 -20 -49 -29q-146 -78 -310 -89
q-10 -1 -54 -3v0v0zM512 165q-18 0 -30.5 12.5t-12.5 30.5q0 4 1 8l2 8h-3v39h-85q-13 0 -23 9.5t-10 23.5t10 23.5t23 9.5h6v0h79v51h-82l-3 1q-13 0 -23 9.5t-10 23t10 23t23 9.5h6v0h71l1 5q1 3 3 5l3 4l-92 92q-7 6 -4.5 17t12.5 21q12 12 26 12q8 0 12 -4l91 -90l85 89
q6 6 16 6q16 0 28 -11q11 -12 13 -19.5t-6 -18.5l-93 -95l-1 -5l-1 -6l6 -1l78 -1h2q14 0 23.5 -9.5t9.5 -23t-9.5 -23t-23.5 -9.5l-4 -1h-81v-51h83h2q14 0 23.5 -9.5t9.5 -23t-9.5 -23.5t-23.5 -10h-85v-41l-1 -2v-3q1 -5 1 -9q0 -18 -12.5 -30.5t-30.5 -12.5v0z" />
    <glyph glyph-name="qia" unicode="&#xe683;" 
d="M241 841h429q12 0 19.5 8t7.5 19t-7.5 19t-19.5 8h-429q-11 0 -19 -8t-8 -19t8 -19t19 -8zM160 734h591q11 0 19 7.5t8 18.5t-8 19t-19 8h-591q-11 0 -19 -8t-8 -19t8 -18.5t19 -7.5zM778 304q-89 0 -152 -63t-63 -152t63 -152t152 -63t152 63t63 152t-63 152t-152 63z
M778 -99q-78 0 -133 55t-55 133t55 133t133 55t133 -55t55 -133t-55 -133t-133 -55zM80 143v429q0 23 15.5 38.5t37.5 15.5h645q22 0 38 -15.5t16 -38.5v-215h53v242q0 34 -23.5 57.5t-56.5 23.5h-699q-33 0 -56.5 -23.5t-23.5 -57.5v-483q0 -34 23.5 -57.5t56.5 -23.5h403
v54h-376q-22 0 -37.5 15.5t-15.5 38.5zM850 139l-86 -86l-45 45q-9 9 -18 0t0 -18l51 -51q1 -2 3 -3q4 -4 9 -4q6 0 10 4q2 1 3 3l91 92q9 9 0 18t-18 0z" />
    <glyph glyph-name="xiaofeiguanli" unicode="&#xe7bf;" 
d="M363 517l59 -81h2v-1h-74v-19h74v-27h-74v-19h74v-108h-56v-19h209v19h-52v108h70v19h-70v27h70v19h-70v5h-1l62 77v1h46v19h-127v-19h33l-62 -78h-10l-57 78h32v19h-127v-19h49v-1zM686 653v169q-6 25 -24.5 33.5t-37.5 -1t-25 -32.5v-169h-31v205q-16 38 -44 38
t-43 -38v-205h-32v171q-14 33 -41.5 35t-44.5 -35v-171h-32v132q-11 32 -39.5 35t-46.5 -35v-132h-149v-483h154q4 -124 82.5 -211t186.5 -87q109 0 188 87t82 211h139v483h-242zM899 195h-114v225q-6 30 -17 49t-23.5 22.5t-25.5 -14.5t-21 -57v-225h-577v429h778v-429z
" />
    <glyph glyph-name="buqia1" unicode="&#xe609;" 
d="M636 43h-540v633l1 52h827v-380v0h-50v335h-732v-590l260 1h234v0q0 -5 0.5 -19t0.5 -23t-1 -9zM250 446q1 15 1 31l-1 12v-1v0h400v0l-1 -9v-4l1 -29h-400zM474 280l1 -28h-225q1 12 1 28l-1 14v0v0h225v0zM924 142h-88v-93h-48v92h-87l-1 50h87v96h49l1 -95h87v-50z
" />
    <glyph glyph-name="shebeiguanli" unicode="&#xe60b;" horiz-adv-x="1029" 
d="M921 828q-23 0 -39.5 -16.5t-16.5 -38.5v-777q0 -23 16.5 -39t39 -16t39 16t16.5 39v776q0 23 -16 39.5t-39 16.5zM727 828h-195q-22 0 -38.5 -16.5t-16.5 -38.5v-694h-83v693q0 23 -16.5 39t-39.5 16h-194q-23 0 -39 -16t-16 -39v-777q0 -23 16.5 -39t38.5 -16h194
q23 0 39.5 16.5t16.5 38.5v28h83v-28q0 -23 16.5 -39t38.5 -16h195q22 0 38.5 16.5t16.5 38.5v777q0 23 -16 39.5t-39 16.5zM227 24h-55v55h55v-55zM311 689h-139v55h139v-55zM616 24h-55v55h55v-55zM699 689h-139v55h139v-55z" />
    <glyph glyph-name="zaibaoyuetongji" unicode="&#xe644;" 
d="M189 312q-12 0 -20.5 9t-8.5 21v146q0 13 8.5 21.5t20.5 8.5t20.5 -9t8.5 -21v-146q0 -12 -8.5 -21t-20.5 -9zM835 18h-588q-36 0 -62 26t-26 62v59q0 13 8.5 21.5t20.5 8.5q13 0 21.5 -9t8.5 -21v-59q0 -12 8.5 -20.5t20.5 -8.5h588q12 0 20.5 9t8.5 20v588
q0 12 -8.5 20.5t-20.5 8.5h-588q-12 0 -20.5 -5t-8.5 -10v-43q0 -13 -9 -21.5t-21 -8.5t-20.5 9t-8.5 21v43q0 30 26 52t62 22h588q37 0 62.5 -26t25.5 -62v-588q1 -36 -25 -62t-63 -26zM218 547h-88q-12 0 -20.5 9t-8.5 21t8.5 20.5t20.5 8.5h88q12 0 20.5 -8.5t8.5 -20.5
t-8.5 -21t-20.5 -9zM218 224h-88q-12 0 -20.5 8.5t-8.5 20.5t8.5 21t20.5 9h88q12 0 20.5 -9t8.5 -21t-8.5 -20.5t-20.5 -8.5zM663 397q17 0 28.5 11.5t11.5 28t-11.5 28.5t-28.5 12h-65l95 91q12 12 12.5 28.5t-11 28.5t-28 12t-29.5 -11l-95 -92l-91 91q-12 12 -28.5 12
t-28.5 -12t-12 -28.5t12 -27.5l92 -92h-64q-16 0 -28 -12t-12 -28.5t12 -28t28 -11.5h81v-40h-81q-16 0 -28 -12t-12 -28.5t12 -28t28 -11.5h81v-80q0 -17 11.5 -28.5t28 -11.5t28.5 11.5t12 28.5v80h80q16 0 27.5 11.5t11.5 28t-11.5 28.5t-27.5 12h-80v40h80z" />
    <glyph glyph-name="dingdanguanli" unicode="&#xe663;" 
d="M853 697v0q24 0 40.5 -16.5t16.5 -40.5v-626q0 -23 -16.5 -40t-40.5 -17h-625h-1q-23 0 -39.5 17t-16.5 40v654v0q0 12 8 20.5t20 8.5h57q12 0 20 8.5t8 20t-8 20t-20 8.5h-28v0q-48 0 -81 -33.5t-33 -80.5v-626q0 -47 33 -80.5t81 -33.5h625q47 0 80.5 33.5t33.5 80.5
v626q0 47 -33.5 80.5t-80.5 33.5h-28q-12 0 -20.5 -8.5t-8.5 -20t8.5 -20t20.5 -8.5h28zM740 754v0q0 47 -33.5 80t-80.5 34h-171q-47 0 -80.5 -33.5t-33.5 -80.5v0v-29q0 -11 8.5 -19.5t20.5 -8.5t20 8.5t8 19.5v29q0 23 16.5 40t40.5 17h171q23 0 40 -17t17 -40v-29
q0 -11 8 -19.5t20 -8.5t20.5 8.5t8.5 19.5v29zM740 526h-399q-11 0 -19.5 -8t-8.5 -20t8.5 -20.5t19.5 -8.5h399q11 0 19.5 8.5t8.5 20.5t-8.5 20t-19.5 8zM740 356h-399q-11 0 -19.5 -8.5t-8.5 -20.5t8.5 -20t19.5 -8h399q11 0 19.5 8t8.5 20t-8.5 20.5t-19.5 8.5zM341 185
q-11 0 -19.5 -8.5t-8.5 -20t8.5 -20t19.5 -8.5h399q11 0 19.5 8.5t8.5 20t-8.5 20t-19.5 8.5h-399z" />
    <glyph glyph-name="canshushezhi" unicode="&#xe81a;" 
d="M890 563v-669q0 -9 -6.5 -15.5t-16 -6.5t-16 6.5t-6.5 15.5v669q-42 8 -69.5 41t-27.5 76t27.5 76t69.5 41v72q0 9 6.5 15.5t16 6.5t16 -6.5t6.5 -15.5v-72q41 -8 69 -41t28 -76t-28 -76t-69 -41zM867 728q-20 0 -34 -14t-14 -34t14 -34t34 -14t34 14t14 34t-14 34
t-34 14zM534 266v-370q0 -10 -6.5 -16.5t-15.5 -6.5t-15.5 6.5t-6.5 16.5v370q-42 8 -69.5 40.5t-27.5 76t27.5 76.5t69.5 41v370q0 9 6.5 15.5t15.5 6.5t15.5 -6.5t6.5 -15.5v-370q42 -8 69.5 -41t27.5 -76.5t-27.5 -76t-69.5 -40.5zM512 431q-20 0 -34 -14t-14 -34t14 -34
t34 -14t34 14t14 34t-14 34t-34 14zM179 -29v-72q0 -9 -6.5 -15.5t-16 -6.5t-16 6.5t-6.5 15.5v72q-41 8 -69 41t-28 76t28 76t69 41v669q0 9 6.5 15.5t16 6.5t16 -6.5t6.5 -15.5v-669q42 -8 69.5 -41t27.5 -76t-27.5 -76t-69.5 -41zM157 136q-20 0 -34 -14t-14 -34t14 -34
t34 -14t34 14t14 34t-14 34t-34 14z" />
    <glyph glyph-name="shijichengbenhuizongbiao" unicode="&#xe729;" 
d="M0 -128v1024h1024v-1024h-1024zM939 811h-854v-854h854v854zM853 43h-682v682h682v-682zM768 640h-512v-512h512v512zM469 495h86v85h85v-170h-85v-86h85v-85h-85v-56h-86v56h-85v85h85v86h-85v170h85v-85z" />
    <glyph glyph-name="buqia" unicode="&#xe602;" horiz-adv-x="1280" 
d="M1114 783h-961q-48 0 -81.5 -34t-33.5 -81v-584q0 -47 33.5 -81t81.5 -34h961q47 0 81 33.5t34 81.5v584q0 47 -34 81t-81 34zM153 735h961q28 0 47.5 -19.5t19.5 -47.5v-67h-1096v67q0 28 20 47.5t48 19.5zM1114 17h-961q-28 0 -47.5 19.5t-19.5 47.5v369h1095v-369
q0 -28 -19.5 -47.5t-47.5 -19.5zM1009 144q-6 0 -10.5 4t-4.5 10v77h-77q-6 0 -10 4t-4 10t4 10.5t10 4.5h77v77q0 6 4.5 10t10.5 4t10 -4t4 -10v-77h77q6 0 10.5 -4.5t4.5 -10.5t-4.5 -10t-10.5 -4h-77v-77q0 -6 -4 -10t-10 -4zM1100 262h-79v79q0 5 -3.5 8.5t-8.5 3.5
t-8.5 -3.5t-3.5 -8.5v-79h-79q-6 0 -9.5 -4t-3.5 -9t3.5 -8.5t9.5 -3.5h79v-79q0 -5 3.5 -8.5t8.5 -3.5t8.5 3.5t3.5 8.5v79h79q6 0 9.5 3.5t3.5 8.5t-3.5 9t-9.5 4z" />
    <glyph glyph-name="shanghuxinxi" unicode="&#xe68e;" 
d="M331.5 715q13.5 0 21.5 8.5t8 21.5v31q0 27 17 43.5t44 16.5h180q24 0 42.5 -17t18.5 -43v-31q0 -13 8 -21.5t21.5 -8.5t22 8.5t8.5 21.5v31q0 49 -35.5 84.5t-85.5 35.5h-180q-50 0 -85.5 -35.5t-35.5 -84.5v-31q0 -13 8.5 -21.5t22 -8.5zM283 41q18 0 30 24
q9 77 69.5 128.5t141.5 51.5q90 0 145 -54q26 -22 43.5 -56t22.5 -70q0 -10 8.5 -17t21.5 -7q14 0 22 8t8 22q-9 97 -90 168q-22 23 -73 43q37 22 58 60.5t21 83.5q0 72 -54 123.5t-127 51.5t-127 -51.5t-54 -123.5q0 -45 21 -83.5t58 -60.5q-65 -28 -109.5 -84.5
t-53.5 -126.5q-8 -14 -2 -22t20 -8zM404 420q0 49 35 82t85 33t85.5 -33t35.5 -82t-35.5 -81.5t-85.5 -32.5q-49 0 -84.5 34t-35.5 80zM843 776h-30q-13 0 -21.5 -8.5t-8.5 -22t8.5 -22t21.5 -8.5h30q27 0 44 -16.5t17 -43.5v-663q0 -27 -17 -43.5t-44 -16.5h-662
q-27 0 -44 16.5t-17 43.5v693q0 14 8.5 22t22.5 8h60q13 0 21.5 8.5t8.5 22t-8.5 22t-21.5 8.5h-30q-50 0 -85.5 -35.5t-35.5 -85.5v-663q0 -49 35.5 -84.5t85.5 -35.5h662q50 0 85.5 35.5t35.5 84.5v663q0 50 -35.5 85.5t-85.5 35.5z" />
    <glyph glyph-name="duqia" unicode="&#xe603;" horiz-adv-x="1280" 
d="M1111 794h-949q-47 0 -80.5 -33t-33.5 -80v-576q0 -47 33.5 -80.5t80.5 -33.5h949q47 0 80 33.5t33 80.5v576q0 47 -33 80t-80 33zM162 747h949q27 0 46.5 -19.5t19.5 -46.5v-66h-1082v66q0 27 19.5 46.5t47.5 19.5zM1111 38h-949q-28 0 -47.5 19.5t-19.5 47.5v364h1082
v-365q0 -27 -19.5 -46.5t-46.5 -19.5zM1016 124q-4 0 -6 3q-11 9 -18 15q-17 14 -22 16h-43q-7 0 -7 8v89q0 7 7 7h38q6 3 25 17q4 3 9.5 7t8 6.5l2.5 2.5q2 1 5 1h4q5 -3 5 -8v-155q0 -6 -5 -8q-2 -1 -3 -1zM970 174q9 0 33 -20l6 -6v126q-5 -4 -9 -7q-26 -20 -34 -20h-30
q-2 0 -2 -2v-68q0 -3 3 -3h33v0zM1067 139q-8 0 -8 7q0 5 5 7q32 19 32 57.5t-33 57.5q-4 2 -4 7q0 8 8 8q2 0 4 -2q18 -11 29 -30t11 -40q0 -47 -40 -71q-2 -1 -4 -1zM1050 167q-7 0 -7 8q0 4 3 6v0q17 10 17 30q0 19 -16 29q-4 2 -4 6q0 8 8 8q1 0 4 -1q23 -14 23 -42
q0 -29 -24 -43q-2 -1 -4 -1zM1018 294q-3 2 -7 -1q-2 -2 -20 -16q-20 -14 -25 -17h-39q-5 0 -5 -5v-89q0 -5 5 -5h43q5 -2 23 -17q14 -12 18 -16q2 -2 4 -2t3 1q4 2 4 6v155q0 4 -4 6zM1011 144q-3 2 -9 8q-24 20 -31 20h-34q-5 0 -5 5v68q0 4 4 4h30q7 0 33 20q4 2 12 9
v-134v0zM1076 211q0 26 -22 40q-2 1 -3 1q-6 0 -6 -6q0 -3 3 -5q17 -10 17 -30q0 -22 -18 -32q-2 -1 -2 -4q0 -6 5 -6l3 1q23 13 23 41zM1070 279q-2 1 -3 1q-6 0 -6 -5q0 -3 3 -5q34 -20 34 -59.5t-34 -59.5q-3 -2 -3 -5q0 -6 5 -6q2 0 4 2q38 23 38.5 68.5t-38.5 68.5z
" />
    <glyph glyph-name="shitu" unicode="&#xe605;" 
d="M422 781h-256q-21 0 -36 -15t-15 -36v-256q0 -22 15 -37t36 -15h256q22 0 37 15t15 37v256q0 21 -15 36t-37 15zM422 499q0 -10 -7.5 -17.5t-17.5 -7.5h-205q-11 0 -18.5 7.5t-7.5 17.5v205q0 11 7.5 18.5t18.5 7.5h205v0q10 0 17.5 -7.5t7.5 -18.5v-205zM858 781h-256v0
q-22 0 -37 -15t-15 -36v-256q0 -22 15 -37t37 -15h256v0q21 0 36 15t15 37v256q0 21 -15 36t-36 15zM858 499q0 -10 -7.5 -17.5t-18.5 -7.5h-205v0q-10 0 -17.5 7.5t-7.5 17.5v205q0 11 7.5 18.5t17.5 7.5h205v0q11 0 18.5 -7.5t7.5 -18.5v-205zM422 346h-256q-21 0 -36 -15
t-15 -37v-256q0 -21 15 -36t36 -15h256q22 0 37 15t15 36v256q0 22 -15 37t-37 15zM422 64q0 -11 -7.5 -18.5t-17.5 -7.5h-205q-11 0 -18.5 7.5t-7.5 18.5v205q0 10 7.5 17.5t18.5 7.5h205v0q10 0 17.5 -7.5t7.5 -17.5v-205zM858 346h-256v0q-22 0 -37 -15t-15 -37v-256
q0 -21 15 -36t37 -15h256v0q21 0 36 15t15 36v256q0 22 -15 37t-36 15zM858 64q0 -11 -7.5 -18.5t-18.5 -7.5h-205v0q-10 0 -17.5 7.5t-7.5 18.5v205q0 10 7.5 17.5t17.5 7.5h205v0q11 0 18.5 -7.5t7.5 -17.5v-205z" />
    <glyph glyph-name="qiaguashi" unicode="&#xe623;" 
d="M104 121v397h817v-108l57 -24l1 307q0 16 -11.5 27.5t-27.5 11.5h-856q-16 0 -27.5 -11.5t-11.5 -27.5v-592q0 -16 11.5 -27t27.5 -11v0h567l-18 58h-529zM104 674h817v-97h-817v97zM181 382q-12 0 -20.5 -8.5t-8.5 -20.5t8.5 -20.5t20.5 -8.5h203q12 0 20.5 8.5
t8.5 20.5t-8.5 20.5t-20.5 8.5v0h-203zM998 330l-3 3q-19 20 -45.5 20t-46.5 -20q-42 -43 -78 -79l33 -32l82 78q4 5 11 5t12 -5l3 -3q5 -5 5 -11.5t-5 -11.5l-46 -46l-33 -33l33 -36l79 79q19 20 19 46t-20 46zM774 86q-5 -5 -11.5 -5t-11.5 5l-3 3q-5 4 -5 11t5 12l46 46
l29 26l-33 33l-75 -76q-20 -20 -20 -46t20 -46l3 -3q17 -18 44.5 -16.5t44.5 23.5l75 75l-33 33z" />
    <glyph glyph-name="icon-report" unicode="&#xe614;" 
d="M998 -77h-947v947q0 11 -7.5 18t-18 7t-18 -7t-7.5 -18v-972q0 -11 7.5 -18.5t17.5 -7.5h973q10 1 17 8.5t7 17.5t-7 17t-17 8v0zM143 145q12 0 19 10l193 242l237 -238q8 -8 18 -8h2q12 1 19 11l299 400q5 6 5 15q0 10 -7.5 17.5t-17.5 7.5q-13 0 -20 -10l-283 -377
l-237 237q-7 7 -17 7h-2q-12 0 -19 -9l-209 -264q-5 -7 -5 -16q0 -12 9 -20q7 -5 16 -5z" />
    <glyph glyph-name="qiaguashi1" unicode="&#xe610;" 
d="M707 168q52 0 89 37t37 89t-37 89t-89 37t-89 -37t-37 -89t37 -89t89 -37zM707 376q34 0 58.5 -24t24.5 -58q0 -22 -11 -41l-113 113q19 10 41 10zM635 335l113 -113q-19 -11 -41 -11q-34 0 -58.5 24t-24.5 59q0 22 11 41zM904 704h-785q-22 0 -38.5 -16t-16.5 -39v-530
q0 -22 16.5 -38.5t38.5 -16.5h785q23 0 39 16.5t16 38.5v530q0 23 -16 39t-39 16zM917 121q0 -4 -3 -7t-7 -3h-791q-4 0 -7 3t-3 7v329h811v-329zM917 536h-811v115q0 5 3 8t7 3h791q4 0 7 -3t3 -8v-115z" />
    <glyph glyph-name="yuangongzizhu" unicode="&#xe611;" 
d="M601 576q0 98 -69.5 167.5t-168 69.5t-168 -69.5t-69.5 -167.5q0 -53 31.5 -111t75.5 -87q-94 -37 -161 -134t-68 -197q0 -14 9.5 -23t23 -9t22.5 9t9 23q1 122 87 208.5t209 86.5q36 0 82.5 -14t77.5 -34q8 -6 18 -6q13 0 22.5 9.5t9.5 22.5q0 19 -16 28q-30 20 -64 33
q44 28 75 85.5t32 109.5zM192 576v3q0 71 51 122t122.5 51t122.5 -51t51 -122.5t-51 -122.5t-123 -51h-2q-70 1 -120 51.5t-51 119.5zM960 506h-293v0q-24 0 -41 -17t-17 -41v-439q0 -24 17 -41t41 -17h293v0q24 0 41 17t17 41v439q0 24 -17 41t-41 17zM665 454h295
q6 0 6 -6v-327h-306v327q0 6 7 6h-2zM960 0h-293q-7 0 -7 6v77h308v-74q1 -2 1 -3q0 -7 -6 -7q-2 0 -3 1zM815 40zM789 39.5q0 -10.5 7.5 -18t18 -7.5t18 7.5t7.5 18t-7.5 18t-18 7.5t-18 -7.5t-7.5 -18z" />
    <glyph glyph-name="wangshangshangdian" unicode="&#xe622;" 
d="M915 671h-811l-84 -220q0 -50 36 -85.5t86 -35.5q51 0 87 35t36 86q0 -50 36 -85.5t87 -35.5q50 0 86.5 35t36.5 86q0 -50 36 -85.5t86 -35.5q51 0 86.5 35t35.5 86q0 -50 36 -85.5t88 -35.5q50 0 86.5 35t36.5 86zM848 292v-280h-674v280h-70v-294q0 -20 17.5 -38.5
t35.5 -18.5h706q19 0 36.5 18.5t17.5 38.5v294h-69zM915 672zM160 727h702q18 0 30 12t12 30t-12 30t-30 12h-702q-18 0 -30 -12t-12 -30t12 -30t30 -12z" />
    <glyph glyph-name="renyuanxinxi" unicode="&#xe67c;" 
d="M896 768h-769q-26 0 -45 -19t-19 -45v-639q0 -27 19 -45.5t45 -18.5h769q27 0 45.5 18.5t18.5 45.5v639q0 26 -18.5 45t-45.5 19zM896 65v0h-768h-1v639h1h768v0v-639zM800 416h-192q-13 0 -22.5 -9.5t-9.5 -23t9.5 -22.5t22.5 -9h192q13 0 22.5 9t9.5 22.5t-9.5 23
t-22.5 9.5zM800 576h-192q-13 0 -22.5 -9.5t-9.5 -22.5t9.5 -22.5t22.5 -9.5h192q13 0 22.5 9.5t9.5 22.5t-9.5 22.5t-22.5 9.5zM800 255h-192q-13 0 -22.5 -9.5t-9.5 -22.5t9.5 -22.5t22.5 -9.5h192q13 0 22.5 9.5t9.5 22.5t-9.5 22.5t-22.5 9.5zM431 377q43 36 43 92
q0 50 -35 85t-85 35t-85 -35t-35 -85q0 -56 43 -92q-45 -22 -72 -64.5t-27 -93.5q0 -11 7.5 -19t19 -8t19.5 8t8 19q0 50 35.5 86t86 36t86.5 -36t36 -86q0 -11 8 -19t19 -8t19 8t8 19q0 51 -27 93.5t-72 64.5zM354 525q23 0 39.5 -16.5t16.5 -39.5t-16.5 -39.5t-39.5 -16.5
t-39.5 16.5t-16.5 39.5t16.5 39.5t39.5 16.5z" />
    <glyph glyph-name="shebeiguanli1" unicode="&#xe649;" 
d="M627 32h-83q-10 0 -18 8t-8 18v96l45 6v51h-499v64h454v45h-435q-9 0 -17 8t-8 18v390q0 10 8 18t17 8h787q10 0 18 -8t8 -18v-230q10 0 18.5 -10t19.5 -16v294q0 10 -8 18t-17 8h-858q-9 0 -17 -8t-8 -18l-7 -537q0 -37 24.5 -60t78.5 -23h211q9 0 17 -8t8 -18v-102h-76
q-10 0 -18 -8t-8 -18q0 -19 6 -19q4 -3 10 -6.5t10 -6.5h345q7 0 19 13q7 6 7 19q0 19 -7 19q-3 3 -9.5 6.5t-9.5 6.5zM480 32h-64q-10 0 -18 8t-8 18v70q0 10 8 18t18 8h38q10 0 18 -8t8 -18v-96zM768 192q-34 0 -55.5 21.5t-21.5 55t21.5 55.5t55.5 22t55.5 -22t21.5 -55
q5 -29 -19 -53t-58 -24zM768 320q-19 0 -35 -16t-16 -35t16 -35t35 -16t35 16t16 35q0 13 -13 38q-4 9 -12 11t-26 2zM768 51q-19 0 -45 13q-19 19 -19 45q-3 0 -6 1.5t-5 3.5l-2 1q-19 -19 -45 -19q-38 0 -57 38q-10 20 -6 37.5t19 26.5q0 3 -2 6.5t-3 4.5l-2 2
q-25 0 -44.5 18t-19.5 46q0 25 18 44.5t46 19.5q0 3 1.5 6t3.5 5l2 2q-15 19 -14 44t20 39q19 19 41.5 19t41.5 -19l19 13q0 25 18.5 44.5t45.5 19.5q26 0 45 -18t19 -46l13 -6q19 15 44 13.5t39 -20.5q19 -14 20.5 -39t-13.5 -44q0 -3 1.5 -6t3.5 -5l1 -2q25 0 44.5 -18
t19.5 -46q0 -25 -18 -44.5t-46 -19.5q0 -3 -1.5 -6t-3.5 -5l-1 -2q14 -19 14 -43.5t-14 -39.5q-19 -19 -44 -19t-39 19h-13q0 -25 -19 -45q-29 -28 -58 -19zM685 147h13l38 -19q5 0 9 -4t4 -9q0 -2 1.5 -6t1.5 -7t-3 -6q0 -19 6.5 -25.5t12.5 -6.5q13 0 19 6q10 10 0 20v19
q0 3 2 4.5t5.5 3.5t5.5 5q2 1 19.5 6t25.5 13q9 9 19 0q5 0 9 -4t4 -9q0 -6 6 -6q7 -7 26 -7q4 0 8.5 7t4.5 12.5t-4.5 12.5t-8.5 7q-5 0 -9 4t-4 8v20q13 25 19 44q0 5 4 9t9 4q2 0 6 1.5t7 1.5t6 -3h7q12 0 12 7q3 2 4.5 5.5t2.5 5.5v1q0 9 -6.5 14.5t-12.5 5.5h-26
q-5 0 -9 4t-4 8q-2 5 -4.5 12.5t-5.5 14t-9 12.5v38q0 5 4 9t9 4q13 13 13 26q0 19 -20 19q-12 0 -25 -13q0 -5 -4 -9t-9 -4h-19q-26 13 -45 19q-5 0 -9 4t-4 9q0 2 -1.5 6t-1.5 7.5t3 5.5v7q0 8 -6.5 13.5t-12.5 5.5q-9 0 -14 -6.5t-5 -12.5v-26q0 -3 -2 -4.5t-5.5 -3.5
t-5.5 -5q-4 -2 -12 -4.5t-14.5 -5.5t-11.5 -9q-10 -9 -20 0q-4 0 -8 4t-4 9q0 6 -7 6q-10 11 -32 0q-13 -12 -13 -25q0 -5 4 -9t9 -4t9 -4t4 -9v-19l-19 -38q0 -5 -4 -9t-9 -4q-2 0 -6 -1.5t-7 -1.5t-6 3h-7q-8 0 -13.5 -6.5t-5.5 -12.5q0 -9 6.5 -14.5t12.5 -5.5h26
q3 0 4.5 -1.5t3.5 -5t5 -5.5q1 -3 6 -20.5t13 -24.5q10 -10 0 -19q0 -5 -4 -9t-9 -4t-9 -4t-4 -9q0 -13 6.5 -19.5t13 -6.5t19.5 13q0 5 4 9t9 4z" />
    <glyph glyph-name="chongzhimingxi" unicode="&#xe738;" 
d="M921 363q-83 83 -200 83t-200 -83t-83 -200.5t83 -200.5t200 -83t200 83t83 200.5t-83 200.5zM721.5 -71q-96.5 0 -165 68.5t-68.5 165t68.5 165t165 68.5t165 -68.5t68.5 -165t-68.5 -165t-165 -68.5zM106 -47q-36 0 -61 25.5t-25 60.5v763q0 36 25 61.5t61 25.5h689
q36 0 61 -25.5t25 -61.5v-321q-24 12 -49 21v276q0 25 -18 43t-44 18h-639q-26 0 -44 -18t-18 -43v-714q0 -25 18 -43t44 -18h272q13 -27 30 -50h-327zM327 207h-123q-8 0 -14 -6t-6 -14t6 -14t14 -6h123q9 0 14.5 6t5.5 14t-5.5 14t-14.5 6zM450 586q9 0 14.5 5.5t5.5 14
t-5.5 14t-14.5 5.5h-29v54q0 9 -5.5 14.5t-14 5.5t-14.5 -5.5t-6 -14.5v-54h-107v54q0 9 -6 14.5t-14.5 5.5t-14 -5.5t-5.5 -14.5v-54h-30q-8 0 -14 -5.5t-6 -14t6 -14t14 -5.5h104v-108h-104q-8 0 -14 -6t-6 -14t6 -14t14 -6h104v-103q0 -8 5.5 -14t14 -6t14 6t5.5 14v103
h103q9 0 14.5 6t5.5 14t-5.5 14t-14.5 6h-103v108h103zM574 610h123q8 0 13.5 6t5.5 14t-5.5 14t-13.5 6h-123q-9 0 -14.5 -6t-5.5 -14t5.5 -14t14.5 -6zM835 59h-245q-9 0 -15 -6t-6 -14.5t6 -14.5t15 -6h245q9 0 15 6t6 14.5t-6 14.5t-15 6zM881.5 162q-6.5 6 -15.5 6
h-308q-8 0 -14.5 -6t-6.5 -14.5t6.5 -14.5t14.5 -6h308q9 0 15.5 6t6.5 14.5t-6.5 14.5zM569 256.5q0 -8.5 6 -14.5t15 -6h245q9 0 15 6t6 14.5t-6 14.5t-15 6h-245q-9 0 -15 -6t-6 -14.5z" />
    <glyph glyph-name="ribaobiao" unicode="&#xe671;" 
d="M146 173l256 279l174 -124l267 298q7 9 19 9q9 0 16 -7t7 -16.5t-7 -16.5l-294 -330l-175 125l-229 -249q-7 -7 -17 -7q-9 0 -16 6.5t-7 16.5q0 9 6 16v0zM1001 -81h-954v954q0 9 -7 16t-16.5 7t-16.5 -7t-7 -16v-977q0 -10 7 -17t16 -7h978q9 0 16 7t7 16.5t-7 16.5
t-16 7zM184 698h-70v198h70q20 0 39 -5t35 -17t25 -30q10 -21 10 -44v-3v-2q0 -22 -10 -42q-9 -18 -25 -31q-16 -12 -35 -18t-39 -6zM178 729q14 0 28 4q13 3 25 10q11 8 17 21q8 15 8 32v1v3q0 17 -7 32q-6 13 -18 21q-11 7 -24 10q-14 3 -28 3h-1h-29v-137h29z" />
    <glyph glyph-name="bumen" unicode="&#xe621;" horiz-adv-x="1029" 
d="M169 251h-87q-35 0 -58.5 -23.5t-23.5 -58.5v-200q0 -34 23.5 -58t58.5 -24h235q35 0 58.5 24t23.5 58v200q0 35 -23.5 58.5t-58.5 23.5h-148zM317 195q12 0 19 -7.5t7 -18.5v-200q0 -11 -7 -18t-19 -7h-235q-12 0 -19 7t-7 18v200q0 11 7 18.5t19 7.5h235zM543 517h82
q34 0 58 23.5t24 58.5v200q0 34 -24 58t-58 24h-231q-34 0 -58 -24t-24 -58v-200q0 -35 24 -58.5t58 -23.5h149zM394 573q-11 0 -18 7.5t-7 18.5v200q0 11 7 18t18 7h236q11 0 18 -7t7 -18v-200q0 -11 -7 -18.5t-18 -7.5h-236zM942 251h-230q-35 0 -58.5 -23.5t-23.5 -58.5
v-200q0 -34 23.5 -58t58.5 -24h235q35 0 58.5 24t23.5 58v200q-4 35 -28.5 58.5t-58.5 23.5zM968 -31q0 -11 -7 -18t-19 -7h-235q-12 0 -19 7t-7 18v200q0 11 7 18.5t19 7.5h235q12 0 19 -7.5t7 -18.5v-200zM855 251v153h-312v113h-57v-113h-317v-153h56v92h569v-92h61z" />
    <glyph glyph-name="jichuxinxi" unicode="&#xe6c0;" 
d="M921 736q-13 12 -66.5 68t-64.5 67t-24 16t-21 5l-7 -1v-177q-1 -12 6 -18q3 -3 8 -4.5t8 -1.5h4h177v0.5v2v3.5t-0.5 4.5t-1 5.5t-2 6.5t-4 7t-5.5 8t-7 8.5zM686 640q-8 8 -12.5 20.5t-4.5 20.5l-1 9v201h-474q-40 0 -68.5 -28.5t-28.5 -68.5v-822q0 -40 28.5 -69
t68.5 -29h649q40 0 68.5 28.5t28.5 69.5v650h-202q-33 -2 -52 18zM248 705q0 11 5 19t12 8h252q7 0 12 -8t5 -19v-53q0 -11 -5 -19t-12 -8h-252q-7 0 -12 8t-5 19v53zM789 77q0 -11 -10 -19t-24 -8h-473q-14 0 -24 8t-10 19v53q0 11 10 19t24 8h473q14 0 24 -8t10 -19v-53v0
zM789 266q0 -11 -10 -18.5t-24 -7.5h-473q-14 0 -24 7.5t-10 18.5v54q0 11 10 18.5t24 7.5h473q14 0 24 -7.5t10 -18.5v-54v0zM789 505v-54q0 -11 -10 -18.5t-24 -7.5h-473q-14 0 -24 7.5t-10 18.5v54q0 11 10 18.5t24 7.5h473q14 0 24 -7.5t10 -18.5z" />
    <glyph glyph-name="quanxianfenpei" unicode="&#xe769;" 
d="M512 824q-90 0 -171.5 -34.5t-140.5 -93.5t-93.5 -140.5t-34.5 -171.5t34.5 -171.5t93.5 -140.5t140.5 -93.5t171.5 -34.5t171.5 34.5t140.5 93.5t93.5 140.5t34.5 171.5t-34.5 171.5t-93.5 140.5t-140.5 93.5t-171.5 34.5zM512 -5q-106 0 -195.5 52t-141.5 141.5
t-52 195.5t52 195.5t141.5 141.5t195.5 52t195.5 -52t141.5 -141.5t52 -195.5t-52 -195.5t-141.5 -141.5t-195.5 -52zM728 518q-11 60 -60.5 95.5t-109.5 24.5q-63 -11 -103.5 -55t-30.5 -102q7 -35 22 -64l-145 -209q-9 -14 -7 -30l7 -36q-1 5 -2 11l-1 1q6 -23 9 -24
l47 -1q18 3 26 17l57 90l1 1l50 -5l67 105q36 -6 72 1q57 10 84 63t17 117zM657 476q-4 -6 -8.5 -9.5t-8 -5t-9 -1t-9 1.5t-10 5t-9.5 6t-10.5 8t-11 8t-11.5 7.5t-11 8t-9 7t-8 7.5t-4.5 8t-2 9t2 9.5t5.5 11.5q17 23 45 28t52 -11q23 -17 28 -45.5t-11 -52.5z" />
  </font>
</defs>
</svg>
